<svg xmlns="http://www.w3.org/2000/svg" width="512" height="512" viewBox="0 0 512 512">
  <defs>
    <linearGradient id="panel" x1="0" x2="1" y1="0" y2="1">
      <stop offset="0%" stop-color="#18344b" />
      <stop offset="100%" stop-color="#102130" />
    </linearGradient>
    <filter id="shadow" x="-20%" y="-20%" width="140%" height="140%">
      <feDropShadow dx="0" dy="20" stdDeviation="20" flood-color="#0a1722" flood-opacity="0.24" />
    </filter>
  </defs>

  <rect width="512" height="512" rx="132" fill="url(#panel)" />
  <g filter="url(#shadow)">
    <rect x="104" y="94" width="304" height="324" rx="58" fill="#f6efe6" />
    <rect x="160" y="160" width="192" height="30" rx="15" fill="#cf643e" />
    <rect x="160" y="222" width="150" height="24" rx="12" fill="#2e677d" />
    <rect x="160" y="274" width="178" height="24" rx="12" fill="#2e677d" />
    <rect x="160" y="326" width="132" height="24" rx="12" fill="#2e677d" />
  </g>
  <path
    d="M338 78c22 0 40 18 40 40v54h-36v-46c0-7-5-12-12-12h-86c-7 0-12 5-12 12v34h-36v-42c0-22 18-40 40-40z"
    fill="#cf643e"
  />
</svg>
